<mxfile host="app.diagrams.net" modified="2024-05-21T17:56:18.006Z" agent="Mozilla/5.0 (Windows NT 10.0; Win64; x64) AppleWebKit/537.36 (KHTML, like Gecko) Chrome/124.0.0.0 Safari/537.36" version="24.4.4" etag="q0o_hUWgmDJLn8r_TpIW" type="github">
  <diagram name="Page-1" id="PiNUSUtRDz2Sxd5JqoMU">
    <mxGraphModel>
      <root>
        <mxCell id="0" />
        <mxCell id="1" parent="0" />
      </root>
    </mxGraphModel>
  </diagram>
</mxfile>
